<?xml version="1.0" standalone="no"?>
<!DOCTYPE svg PUBLIC "-//W3C//DTD SVG 20010904//EN"
 "http://www.w3.org/TR/2001/REC-SVG-20010904/DTD/svg10.dtd">
<svg version="1.0" xmlns="http://www.w3.org/2000/svg"
 width="29.000000pt" height="28.000000pt" viewBox="0 0 29.000000 28.000000"
 preserveAspectRatio="xMidYMid meet">

<g transform="translate(0.000000,28.000000) scale(0.100000,-0.100000)"
fill="#0F61E6" stroke="none">
<path d="M117 250 c-9 -11 -17 -22 -17 -25 0 -3 20 -5 45 -5 25 0 45 2 45 5 0
10 -35 45 -45 45 -6 0 -18 -9 -28 -20z"/>
<path d="M39 236 c-2 -2 -3 -52 -1 -110 l3 -107 107 3 106 3 -2 105 c-1 96 -3
105 -20 108 -14 2 -20 -2 -18 -15 1 -15 -9 -18 -66 -21 -63 -3 -68 -1 -68 18
0 18 -28 29 -41 16z m129 -96 c2 -14 15 -37 29 -51 31 -33 12 -51 -21 -20 -12
12 -31 21 -42 21 -25 0 -44 18 -44 43 0 16 3 17 15 7 20 -17 40 -3 23 17 -10
13 -8 14 12 11 18 -2 26 -10 28 -28z"/>
</g>
</svg>
