<?xml version="1.0" standalone="no"?>
<!DOCTYPE svg PUBLIC "-//W3C//DTD SVG 20010904//EN"
 "http://www.w3.org/TR/2001/REC-SVG-20010904/DTD/svg10.dtd">
<svg version="1.0" xmlns="http://www.w3.org/2000/svg"
 width="26.000000pt" height="21.000000pt" viewBox="0 0 26.000000 21.000000"
 preserveAspectRatio="xMidYMid meet">

<g transform="translate(0.000000,21.000000) scale(0.100000,-0.100000)"
fill="#0F61E6" stroke="none">
<path d="M68 153 c-27 -19 -48 -39 -48 -43 0 -4 21 -24 48 -43 46 -35 47 -35
53 -14 4 17 12 21 35 19 16 -2 41 -11 55 -22 33 -23 41 -17 28 20 -13 37 -41
61 -81 69 -22 4 -34 14 -38 28 -5 21 -7 20 -52 -14z"/>
</g>
</svg>
