<?xml version="1.0" standalone="no"?>
<!DOCTYPE svg PUBLIC "-//W3C//DTD SVG 20010904//EN"
 "http://www.w3.org/TR/2001/REC-SVG-20010904/DTD/svg10.dtd">
<svg version="1.0" xmlns="http://www.w3.org/2000/svg"
 width="36.000000pt" height="32.000000pt" viewBox="0 0 36.000000 32.000000"
 preserveAspectRatio="xMidYMid meet">

<g transform="translate(0.000000,32.000000) scale(0.100000,-0.100000)"
fill="#0F61E6" stroke="none">
<path d="M168 297 c-14 -11 -108 -169 -108 -182 0 -3 13 -5 30 -5 26 0 34 9
80 85 27 47 50 88 50 90 0 2 -8 9 -19 14 -13 7 -23 7 -33 -2z m26 -38 c-3 -5
-10 -7 -15 -3 -5 3 -7 10 -3 15 3 5 10 7 15 3 5 -3 7 -10 3 -15z"/>
<path d="M211 224 c-10 -23 -8 -32 14 -70 21 -36 31 -44 55 -44 17 0 30 3 30
7 0 11 -74 133 -80 133 -4 0 -12 -12 -19 -26z"/>
<path d="M167 146 c-23 -34 -22 -36 18 -36 40 0 42 5 17 38 l-18 24 -17 -26z"/>
<path d="M35 80 c-3 -6 -3 -19 0 -30 6 -20 14 -20 153 -18 l147 3 0 25 0 25
-147 3 c-93 2 -149 -1 -153 -8z m65 -20 c0 -5 -4 -10 -10 -10 -5 0 -10 5 -10
10 0 6 5 10 10 10 6 0 10 -4 10 -10z m190 0 c0 -5 -4 -10 -10 -10 -5 0 -10 5
-10 10 0 6 5 10 10 10 6 0 10 -4 10 -10z"/>
</g>
</svg>
