<?xml version="1.0" standalone="no"?>
<!DOCTYPE svg PUBLIC "-//W3C//DTD SVG 20010904//EN"
 "http://www.w3.org/TR/2001/REC-SVG-20010904/DTD/svg10.dtd">
<svg version="1.0" xmlns="http://www.w3.org/2000/svg"
 width="26.000000pt" height="31.000000pt" viewBox="0 0 26.000000 31.000000"
 preserveAspectRatio="xMidYMid meet">

<g transform="translate(0.000000,31.000000) scale(0.100000,-0.100000)"
fill="#0F61E6" stroke="none">
<path d="M100 290 c-38 -9 -51 -70 -23 -109 l21 -28 -34 -16 c-43 -21 -64 -61
-43 -82 8 -8 28 -16 44 -18 17 -3 22 -2 13 0 -14 3 -18 14 -17 51 1 44 2 46
12 20 10 -25 16 -28 54 -28 36 0 43 3 43 19 0 11 5 23 10 26 6 4 10 -11 10
-39 0 -34 -4 -46 -17 -49 -10 -2 -5 -3 12 0 16 2 36 10 44 18 21 21 0 61 -43
82 l-34 16 20 27 c28 38 17 95 -20 108 -15 5 -38 6 -52 2z m70 -65 c10 -12 9
-20 -4 -40 -22 -33 -60 -33 -82 0 -21 33 -5 55 41 55 18 0 38 -7 45 -15z m-31
-91 c-9 -11 -15 -11 -25 -3 -19 15 -18 17 11 17 21 0 23 -3 14 -14z"/>
</g>
</svg>
