<?xml version="1.0" standalone="no"?>
<!DOCTYPE svg PUBLIC "-//W3C//DTD SVG 20010904//EN"
 "http://www.w3.org/TR/2001/REC-SVG-20010904/DTD/svg10.dtd">
<svg version="1.0" xmlns="http://www.w3.org/2000/svg"
 width="261.000000pt" height="319.000000pt" viewBox="0 0 261.000000 319.000000"
 preserveAspectRatio="xMidYMid meet">

<g transform="translate(0.000000,319.000000) scale(0.100000,-0.100000)"
fill="#D2D2D2" stroke="none">
<path d="M830 3171 c-177 -6 -199 -9 -243 -30 -52 -25 -102 -79 -117 -126 -5
-16 -27 -154 -49 -305 -33 -227 -41 -313 -45 -495 -4 -121 -9 -256 -12 -300
l-5 -80 175 -160 c97 -88 178 -167 182 -175 3 -8 30 -139 60 -290 29 -151 56
-285 59 -297 l5 -23 465 0 c433 0 464 1 469 18 3 9 28 136 56 282 28 146 55
279 61 295 6 20 69 84 185 190 l175 160 -5 80 c-3 44 -8 179 -12 300 -4 182
-12 268 -45 495 -22 151 -44 289 -49 305 -15 47 -65 101 -117 126 -43 21 -67
23 -277 30 -259 9 -624 8 -916 0z m1250 -767 c56 -34 60 -51 60 -293 l0 -222
-32 6 c-188 32 -1418 32 -1605 0 l-33 -6 0 222 c0 241 3 258 59 292 23 15 100
16 774 17 676 0 752 -2 777 -16z m-336 -947 c44 -7 79 -15 78 -19 -1 -5 -2
-19 -2 -33 l0 -25 -515 0 -515 0 0 25 c0 14 -1 28 -2 33 -2 4 31 12 72 18 103
16 781 16 884 1z m62 -158 c-3 -17 -6 -42 -6 -55 l0 -24 -495 0 -495 0 0 24
c0 13 -3 38 -6 55 l-6 31 507 0 508 0 -7 -31z m-24 -169 c-7 -77 40 -70 -477
-70 -433 0 -464 1 -469 18 -5 16 -9 69 -7 85 1 4 216 6 479 5 l477 -3 -3 -35z
m-22 -144 c0 -13 -3 -38 -6 -55 l-6 -31 -443 0 -442 0 -7 31 c-3 17 -6 42 -6
55 l0 24 455 0 455 0 0 -24z"/>
<path d="M52 2297 c-6 -6 -15 -100 -20 -207 -12 -239 -16 -230 105 -230 126 0
123 -5 123 233 0 137 -3 196 -12 205 -17 17 -182 16 -196 -1z"/>
<path d="M2362 2298 c-9 -9 -12 -68 -12 -205 0 -238 -3 -233 123 -233 121 0
117 -9 105 230 -5 107 -14 201 -20 207 -14 17 -179 18 -196 1z"/>
<path d="M182 1821 l-44 -6 91 -52 91 -52 0 45 c0 42 -2 46 -35 60 -19 7 -40
13 -47 12 -7 0 -33 -4 -56 -7z"/>
<path d="M2323 1815 c-30 -13 -33 -18 -33 -59 l0 -45 90 52 c49 28 88 52 87
53 -1 0 -27 4 -57 7 -37 4 -66 1 -87 -8z"/>
<path d="M321 1519 c-44 -99 -79 -250 -92 -402 -6 -71 -9 -131 -7 -133 4 -3
602 -93 604 -90 4 3 -189 442 -199 455 -10 11 -189 170 -258 228 -14 12 -20 5
-48 -58z m96 -275 c57 -19 150 -74 184 -108 21 -21 68 -151 58 -160 -2 -2 -80
9 -174 25 -125 21 -173 33 -182 46 -8 10 -13 49 -13 99 0 117 22 133 127 98z"/>
<path d="M2125 1477 c-71 -62 -135 -120 -142 -128 -10 -13 -203 -452 -199
-455 2 -3 600 87 604 90 2 3 -1 62 -7 133 -13 153 -50 313 -94 406 l-32 68
-130 -114z m179 -233 c20 -20 23 -171 3 -197 -9 -13 -57 -25 -182 -46 -94 -16
-172 -27 -174 -25 -8 8 35 137 53 156 29 31 124 89 180 109 63 23 100 24 120
3z"/>
<path d="M227 868 c12 -225 43 -449 70 -501 30 -59 -2 -57 1008 -57 1010 0
978 -2 1008 57 19 36 44 178 56 318 11 118 20 255 16 255 -1 0 -143 -20 -315
-45 l-313 -45 -452 0 -452 0 -313 45 c-172 25 -314 45 -315 45 -1 0 -1 -33 2
-72z"/>
<path d="M260 209 c0 -92 4 -139 12 -147 17 -17 319 -17 336 0 8 8 12 47 12
110 l0 98 -112 0 c-137 1 -181 10 -219 46 l-29 28 0 -135z"/>
<path d="M2319 315 c-34 -35 -81 -44 -216 -45 l-113 0 0 -98 c0 -63 4 -102 12
-110 18 -18 322 -17 337 2 8 9 11 57 9 145 l-3 132 -26 -26z"/>
</g>
</svg>
