<?xml version="1.0" standalone="no"?>
<!DOCTYPE svg PUBLIC "-//W3C//DTD SVG 20010904//EN"
 "http://www.w3.org/TR/2001/REC-SVG-20010904/DTD/svg10.dtd">
<svg version="1.0" xmlns="http://www.w3.org/2000/svg"
 width="35.000000pt" height="29.000000pt" viewBox="0 0 35.000000 29.000000"
 preserveAspectRatio="xMidYMid meet">

<g transform="translate(0.000000,29.000000) scale(0.100000,-0.100000)"
fill="#0F61E6" stroke="none">
<path d="M125 259 c-45 -34 -60 -58 -25 -39 12 6 25 9 28 5 9 -9 -28 -36 -39
-29 -5 3 -9 1 -9 -5 0 -5 -10 -11 -22 -13 -12 -2 -24 -9 -26 -17 -3 -10 0 -12
12 -8 9 4 16 2 16 -3 0 -6 -7 -10 -15 -10 -8 0 -15 -4 -15 -10 0 -5 7 -10 15
-10 8 0 15 -4 15 -10 0 -5 -7 -7 -15 -4 -28 11 -16 -24 13 -35 15 -6 45 -23
67 -36 57 -35 64 -33 67 27 2 41 7 54 21 56 14 3 17 -4 17 -43 0 -28 4 -44 10
-40 6 3 10 24 10 46 0 29 4 39 16 39 13 0 15 -8 12 -35 -2 -19 -3 -35 -2 -35
0 0 15 5 33 11 29 10 31 14 31 63 0 47 -3 54 -25 64 -14 6 -25 18 -25 27 0 11
-109 78 -122 74 -2 0 -21 -14 -43 -30z m26 -42 c-8 -8 -11 -5 -11 9 0 27 14
41 18 19 2 -9 -1 -22 -7 -28z m57 15 c3 -16 -1 -20 -12 -16 -19 7 -22 48 -3
42 6 -3 13 -14 15 -26z m42 -12 c0 -11 -4 -20 -10 -20 -5 0 -10 9 -10 20 0 11
5 20 10 20 6 0 10 -9 10 -20z m30 -16 c0 -8 -4 -12 -10 -9 -5 3 -10 10 -10 16
0 5 5 9 10 9 6 0 10 -7 10 -16z m-129 -57 c-8 -8 -11 -5 -11 9 0 27 14 41 18
19 2 -9 -1 -22 -7 -28z m57 15 c3 -16 -1 -20 -12 -16 -19 7 -22 48 -3 42 6 -3
13 -14 15 -26z m-88 0 c0 -10 -7 -19 -15 -19 -8 0 -15 7 -15 14 0 8 5 11 10 8
6 -3 10 -1 10 4 0 6 2 11 5 11 3 0 5 -8 5 -18z m130 -2 c0 -11 -4 -20 -10 -20
-5 0 -10 9 -10 20 0 11 5 20 10 20 6 0 10 -9 10 -20z m30 -6 c0 -8 -5 -12 -10
-9 -6 4 -8 11 -5 16 9 14 15 11 15 -7z m50 -5 c0 -5 -7 -9 -15 -9 -8 0 -15 7
-15 15 0 9 6 12 15 9 8 -4 15 -10 15 -15z m-211 -53 c0 -12 -3 -15 -6 -8 -2 6
-9 10 -14 6 -5 -3 -9 1 -9 9 0 7 7 14 15 14 9 0 15 -9 14 -21z m41 -7 c0 -10
-4 -19 -10 -19 -5 0 -10 12 -10 26 0 14 4 23 10 19 6 -3 10 -15 10 -26z m170
21 c0 -5 -7 -10 -15 -10 -8 0 -15 5 -15 10 0 6 7 10 15 10 8 0 15 -4 15 -10z"/>
</g>
</svg>
